PathFileType	4	(X/Y/Z)	Demo_SinglePerson_0-995.trc
DataRate	CameraRate	NumFrames	NumMarkers	Units	OrigDataRate	OrigDataStartFrame	OrigNumFrames
30	30	6	22	m	30	248	995
Frame#	Time	Hip			RHip			RKnee			RAnkle			RBigToe			RSmallToe			RHeel			LHip			LKnee			LAnkle			LBigToe			LSmallToe			LHeel			Neck			Head			Nose			RShoulder			RElbow			RWrist			LShoulder			LElbow			LWrist		
		X1	Y1	Z1	X2	Y2	Z2	X3	Y3	Z3	X4	Y4	Z4	X5	Y5	Z5	X6	Y6	Z6	X7	Y7	Z7	X8	Y8	Z8	X9	Y9	Z9	X10	Y10	Z10	X11	Y11	Z11	X12	Y12	Z12	X13	Y13	Z13	X14	Y14	Z14	X15	Y15	Z15	X16	Y16	Z16	X17	Y17	Z17	X18	Y18	Z18	X19	Y19	Z19	X20	Y20	Z20	X21	Y21	Z21	X22	Y22	Z22
248	8.266666666666667	0.23610366901481963	0.9792409679985659	0.23394884967881122	0.22289223777255882	0.9869864704715109	0.3422374256501342	0.2044123244593776	0.5129226514733356	0.35534187715098	0.2050092702780929	0.10770459945329061	0.35490501237704103	0.3753337299268645	0.049401944510832685	0.37165209477789574	0.35170907927574524	0.05061757657326272	0.4171295355390367	0.1783941961992518	0.042043181162104426	0.33738256168382486	0.23081985525857476	0.9843434509944088	0.11518127093528349	0.22652112193432322	0.512905095908882	0.1074060193033733	0.24035208411429737	0.11434344281706496	0.10496495011822356	0.43410653694936696	0.033248962417752256	0.06331795775705877	0.37920985341533103	0.03401878773678039	0.011946996449784308	0.2175237389284197	0.04471917665464168	0.1300332254154082	0.22648420931945004	1.547956479151644	0.22088905797180639	0.37512522483361	1.8242585503890518	0.21101738237908063	0.3882165730625726	1.7030032030322475	0.23909179615994056	0.2155056156836671	1.5176457493948319	0.4121645794553378	0.28971884694482086	1.7252328175974883	0.5592112002615922	0.3711084741485223	1.9496918078629626	0.5244712094256316	0.20401049701349358	1.5208145335169807	0.04262067511023899	0.2833626699696276	1.7553831608932895	-0.07626796041729035	0.3469759492025246	1.9564685659653558	-0.05352722944389925
249	8.3	0.23625454691594505	0.9792338179064891	0.2342815216104417	0.2229449409664061	0.9847385116147453	0.34233843585375556	0.20451080914523312	0.5140230908976224	0.35750913734636997	0.2050867754510303	0.10910313962593703	0.3571181796403735	0.37781811111462066	0.04786000365036909	0.3742776046771961	0.35439843852703634	0.04691016525517695	0.417846001686751	0.17841149573404758	0.04333075120171873	0.3396339969125843	0.2332822914252918	0.9823483099235439	0.11160239589237847	0.2291348290869462	0.513164188244801	0.10615401097861735	0.24079298244315023	0.11512126489005711	0.10724478463727363	0.4339562536710108	0.03405669688828403	0.061813660815030896	0.3795641047264755	0.032591555110053586	0.012241966740045377	0.2150468402363416	0.0441710136026101	0.1278295613352574	0.22664889373172595	1.5473804897822905	0.2206273199270814	0.3750575113846814	1.827402963411378	0.20983347022172993	0.3933098120606305	1.7032538457675117	0.2378518274877596	0.21300504237118445	1.5123310037390725	0.41793353742290107	0.2894972937116799	1.7220008308371735	0.5597745560303623	0.3700251222416493	1.949074746556674	0.5323590321787938	0.20430925851947263	1.5221369745609663	0.041535597580529916	0.28398729460434663	1.7569447292149918	-0.0754115246199191	0.3443145920979891	1.9545411958958667	-0.05729033786037992
250	8.333333333333334	0.23471272520173056	0.9781691095219884	0.2323356823377654	0.22390119338221898	0.985987690767727	0.34439463812509435	0.2031021813506201	0.5140887249353507	0.3555794615108991	0.20603800692400423	0.10996790860829653	0.35673805791251767	0.3763695762912941	0.049376168491026814	0.3748410782787681	0.35575696572853077	0.04822062034643472	0.4212331368238406	0.17937248419932084	0.044154267255818225	0.33910027004858095	0.2293994949178374	0.983206857649233	0.11339004868323371	0.22515923085600065	0.5136331492570577	0.10723852323654984	0.23874936081677997	0.11484608394938484	0.10189097807088374	0.4324425837726061	0.03369449031948361	0.06012342382017007	0.37750234887974565	0.03451707405206068	0.008721339489463062	0.2159743781614609	0.045234744497286	0.12691712661214535	0.22763777972880894	1.5514412148098145	0.22168712872429533	0.3712812589967985	1.827132666061049	0.21130854225609505	0.39206884712085177	1.7054021191926783	0.23743879867653794	0.21163479310115174	1.5145129278059142	0.415029180612268	0.2905520170759687	1.72497531261949	0.559889056168683	0.36932057860209583	1.946396555160206	0.5291451990755839	0.20537121201773215	1.520353160199667	0.0433585773820989	0.28202135411581825	1.7567930636178266	-0.07762444843543183	0.34560702619253414	1.9555593974958472	-0.05657674368161064
251	8.366666666666667	0.23501761178896302	0.9792174990990424	0.2327750230799856	0.22399181060561776	0.9870446761589821	0.3446769335392665	0.20317740217649402	0.5141126125909784	0.3556187764856989	0.20608533097984263	0.10878737617249593	0.3572072036995914	0.3787115685607032	0.047813139181780366	0.3773599081795756	0.35532428381397496	0.047179969091032205	0.4210054935590563	0.17707883268822033	0.04363367943134587	0.33688167843692945	0.22998491761087098	0.9843540685405641	0.11409512285797184	0.2258926792699413	0.5115962631916743	0.10892565096114314	0.23952754811183294	0.11104664770070041	0.10464683149169719	0.43583073319167415	0.031175187643623845	0.06318760083177823	0.3815266302189535	0.02966243788789397	0.013716078732236731	0.2167664324650449	0.0437348966617797	0.1313591626476801	0.2279682434616894	1.5495680580953084	0.2230564426779044	0.3764911171126339	1.8256009076081154	0.21144933171789296	0.39196884686754474	1.7010062050688868	0.23673678632283715	0.2114164515523988	1.5129647808844378	0.41404236337558503	0.28993054296108023	1.7222863713365617	0.5603429870992	0.36859995142750107	1.9448121360035042	0.5302580721698722	0.20623187647070387	1.5226781342647566	0.04521255044821021	0.282996142882537	1.7588191425347963	-0.07620891956326417	0.34645431148588324	1.951529546694767	-0.054767351259380606
252	8.4	0.23508240272225747	0.9793205574445867	0.23247523701771566	0.22422938565452324	0.987123264507062	0.3442005237445006	0.2034327801226774	0.5123104748735348	0.3544305799373807	0.20635268351598146	0.10740138751148263	0.35652106168164543	0.37623887956130814	0.04695698435101922	0.37435838700030805	0.3557863060287898	0.045979562513560376	0.4206309239751827	0.17738437663823825	0.04239436565251095	0.33629002330401475	0.229887086641513	0.984433602628737	0.11393598444568001	0.22575280336623402	0.5100328680343533	0.10821370954127503	0.2395565144397141	0.11217861826230173	0.10608484303026099	0.4354675085801086	0.030106610702066758	0.06348203316254959	0.3811774521230557	0.028706665397222712	0.013989720255166519	0.21672785157771254	0.042715244267120096	0.13114436112096675	0.22804434118701036	1.549108813565866	0.2233845089990986	0.3790070988115731	1.8255435749130782	0.21538164720413278	0.39449379272635177	1.7028607759430443	0.2356422347291961	0.2118216806144918	1.5162995725930999	0.4137685991418721	0.2903438325512851	1.7202134388353103	0.5598122771523132	0.3718034714515924	1.9527609776381512	0.5275848540476834	0.20316035832856072	1.5235975757037012	0.041336042921447436	0.2827284423504367	1.7580851103241881	-0.07498620800741823	0.347979567983142	1.9567473671669156	-0.05677209665448976
253	8.433333333333334	0.23479763543026466	0.9779989782898246	0.23597738686621447	0.22142384481749675	0.9875464821159065	0.3444024297373196	0.20283124472733868	0.5133112662316908	0.35789527522243575	0.20340939473027708	0.10753918243099914	0.35684353860786544	0.3710444895159885	0.05001516037306551	0.37640405443251507	0.3508076701927206	0.048554159231250865	0.4171310808966769	0.1767210711458581	0.04404832643301674	0.3411538194008637	0.23178662662474533	0.9831895265136897	0.11307214898437871	0.22533986269090742	0.5130823640466866	0.10936255979058686	0.24137359720934565	0.1133775485388923	0.10347525037156652	0.43273064240944037	0.034777168132459936	0.06280048114970241	0.3750836451859075	0.0343525716551473	0.010252817525437193	0.2159298386481482	0.04430914070586	0.12956593167622546	0.22766747031213005	1.549931468487945	0.22502700670877493	0.3763887209438772	1.8268248637310731	0.2081384263821412	0.3895674189040753	1.7033992033457617	0.23762209036977844	0.21392045627133555	1.5170942936755756	0.4147773111311842	0.29104979442424805	1.7212629571332094	0.5589180325423198	0.36976460175906584	1.94696804654749	0.528130987007286	0.20273790914906376	1.520236788447608	0.04211336420726084	0.28443530230120534	1.755903026382467	-0.07805534480315748	0.34498986833487505	1.9581733336096179	-0.059183871452085514
